<svg width="21" height="19" viewBox="0 0 21 19" fill="none" xmlns="http://www.w3.org/2000/svg">
<mask id="path-1-outside-1_2066_256" maskUnits="userSpaceOnUse" x="0.169922" y="0.647003" width="21" height="19" fill="black">
<rect fill="white" x="0.169922" y="0.647003" width="21" height="19"/>
<path d="M11.0526 1.03763L20.6151 9.47513C20.8612 9.68607 20.8612 10.0376 20.6854 10.2837C20.4745 10.5298 20.1229 10.5298 19.8768 10.3189L18.576 9.15872V16.0845C18.576 17.6665 17.3104 18.897 15.7635 18.897H5.63853C4.0565 18.897 2.82603 17.6665 2.82603 16.0845V9.15872L1.4901 10.3189C1.27916 10.5298 0.892441 10.5298 0.71666 10.2837C0.505722 10.0376 0.505722 9.68607 0.751816 9.47513L10.3143 1.03763C10.5253 0.861847 10.8417 0.861847 11.0526 1.03763ZM3.95103 16.0845C3.95103 17.0337 4.68932 17.772 5.63853 17.772H7.88853V12.147C7.88853 11.5493 8.38072 11.022 9.01353 11.022H12.3885C12.9862 11.022 13.5135 11.5493 13.5135 12.147V17.772H15.7635C16.6776 17.772 17.451 17.0337 17.451 16.0845V8.17435L10.701 2.23294L3.95103 8.17435V16.0845ZM9.01353 17.772H12.3885V12.147H9.01353V17.772Z"/>
</mask>
<path d="M11.0526 1.03763L20.6151 9.47513C20.8612 9.68607 20.8612 10.0376 20.6854 10.2837C20.4745 10.5298 20.1229 10.5298 19.8768 10.3189L18.576 9.15872V16.0845C18.576 17.6665 17.3104 18.897 15.7635 18.897H5.63853C4.0565 18.897 2.82603 17.6665 2.82603 16.0845V9.15872L1.4901 10.3189C1.27916 10.5298 0.892441 10.5298 0.71666 10.2837C0.505722 10.0376 0.505722 9.68607 0.751816 9.47513L10.3143 1.03763C10.5253 0.861847 10.8417 0.861847 11.0526 1.03763ZM3.95103 16.0845C3.95103 17.0337 4.68932 17.772 5.63853 17.772H7.88853V12.147C7.88853 11.5493 8.38072 11.022 9.01353 11.022H12.3885C12.9862 11.022 13.5135 11.5493 13.5135 12.147V17.772H15.7635C16.6776 17.772 17.451 17.0337 17.451 16.0845V8.17435L10.701 2.23294L3.95103 8.17435V16.0845ZM9.01353 17.772H12.3885V12.147H9.01353V17.772Z" fill="#0F2554"/>
<path d="M11.0526 1.03763L11.1188 0.962614L11.1166 0.960806L11.0526 1.03763ZM20.6151 9.47513L20.5489 9.55012L20.55 9.55105L20.6151 9.47513ZM20.6854 10.2837L20.7616 10.3491L20.7668 10.3418L20.6854 10.2837ZM19.8768 10.3189L19.8102 10.3935L19.8117 10.3948L19.8768 10.3189ZM18.576 9.15872L18.6426 9.08409L18.476 8.93554V9.15872H18.576ZM2.82603 9.15872H2.92603V8.93944L2.76047 9.08322L2.82603 9.15872ZM1.4901 10.3189L1.42437 10.2432L1.41939 10.2482L1.4901 10.3189ZM0.71666 10.2837L0.798352 10.2254L0.792585 10.2186L0.71666 10.2837ZM0.751816 9.47513L0.816902 9.55106L0.817978 9.55011L0.751816 9.47513ZM10.3143 1.03763L10.2503 0.960775L10.2482 0.962644L10.3143 1.03763ZM7.88853 17.772V17.872H7.98853V17.772H7.88853ZM13.5135 17.772H13.4135V17.872H13.5135V17.772ZM17.451 8.17435H17.551V8.12915L17.5171 8.09928L17.451 8.17435ZM10.701 2.23294L10.7671 2.15788L10.701 2.09972L10.635 2.15788L10.701 2.23294ZM3.95103 8.17435L3.88496 8.09928L3.85103 8.12915V8.17435H3.95103ZM9.01353 17.772H8.91353V17.872H9.01353V17.772ZM12.3885 17.772V17.872H12.4885V17.772H12.3885ZM12.3885 12.147H12.4885V12.047H12.3885V12.147ZM9.01353 12.147V12.047H8.91353V12.147H9.01353ZM10.9864 1.11261L20.5489 9.55011L20.6813 9.40014L11.1188 0.962644L10.9864 1.11261ZM20.55 9.55105C20.7488 9.72141 20.7563 10.0125 20.604 10.2256L20.7668 10.3418C20.9661 10.0628 20.9736 9.65073 20.6802 9.3992L20.55 9.55105ZM20.6095 10.2186C20.4401 10.4163 20.1529 10.4238 19.9419 10.243L19.8117 10.3948C20.093 10.6358 20.5089 10.6433 20.7613 10.3488L20.6095 10.2186ZM19.9434 10.2442L18.6426 9.08409L18.5095 9.23335L19.8103 10.3935L19.9434 10.2442ZM18.476 9.15872V16.0845H18.676V9.15872H18.476ZM18.476 16.0845C18.476 17.6105 17.256 18.797 15.7635 18.797V18.997C17.3648 18.997 18.676 17.7226 18.676 16.0845H18.476ZM15.7635 18.797H5.63853V18.997H15.7635V18.797ZM5.63853 18.797C4.11173 18.797 2.92603 17.6113 2.92603 16.0845H2.72603C2.72603 17.7218 4.00127 18.997 5.63853 18.997V18.797ZM2.92603 16.0845V9.15872H2.72603V16.0845H2.92603ZM2.76047 9.08322L1.42453 10.2434L1.55567 10.3944L2.8916 9.23423L2.76047 9.08322ZM1.41939 10.2482C1.24435 10.4232 0.93177 10.4128 0.798033 10.2256L0.635286 10.3418C0.853111 10.6468 1.31397 10.6364 1.56081 10.3896L1.41939 10.2482ZM0.792585 10.2186C0.611756 10.0077 0.619231 9.72048 0.816895 9.55105L0.686737 9.3992C0.392213 9.65165 0.399688 10.0676 0.640734 10.3488L0.792585 10.2186ZM0.817978 9.55011L10.3805 1.11261L10.2482 0.962644L0.685654 9.40014L0.817978 9.55011ZM10.3783 1.11445C10.5522 0.969573 10.8147 0.969573 10.9886 1.11445L11.1166 0.960806C10.8686 0.754121 10.4983 0.754121 10.2503 0.960806L10.3783 1.11445ZM3.85103 16.0845C3.85103 17.089 4.63409 17.872 5.63853 17.872V17.672C4.74454 17.672 4.05103 16.9785 4.05103 16.0845H3.85103ZM5.63853 17.872H7.88853V17.672H5.63853V17.872ZM7.98853 17.772V12.147H7.78853V17.772H7.98853ZM7.98853 12.147C7.98853 11.6025 8.43797 11.122 9.01353 11.122V10.922C8.32348 10.922 7.78853 11.4962 7.78853 12.147H7.98853ZM9.01353 11.122H12.3885V10.922H9.01353V11.122ZM12.3885 11.122C12.931 11.122 13.4135 11.6046 13.4135 12.147H13.6135C13.6135 11.4941 13.0414 10.922 12.3885 10.922V11.122ZM13.4135 12.147V17.772H13.6135V12.147H13.4135ZM13.5135 17.872H15.7635V17.672H13.5135V17.872ZM15.7635 17.872C16.7315 17.872 17.551 17.0903 17.551 16.0845H17.351C17.351 16.9771 16.6237 17.672 15.7635 17.672V17.872ZM17.551 16.0845V8.17435H17.351V16.0845H17.551ZM17.5171 8.09928L10.7671 2.15788L10.635 2.308L17.385 8.24941L17.5171 8.09928ZM10.635 2.15788L3.88496 8.09928L4.01711 8.24941L10.7671 2.308L10.635 2.15788ZM3.85103 8.17435V16.0845H4.05103V8.17435H3.85103ZM9.01353 17.872H12.3885V17.672H9.01353V17.872ZM12.4885 17.772V12.147H12.2885V17.772H12.4885ZM12.3885 12.047H9.01353V12.247H12.3885V12.047ZM8.91353 12.147V17.772H9.11353V12.147H8.91353Z" fill="#0F2554" mask="url(#path-1-outside-1_2066_256)"/>
</svg>
